<svg width="100" height="100" viewBox="0 0 100 100" fill="none" xmlns="http://www.w3.org/2000/svg">
<rect width="100" height="100" rx="20" fill="url(#paint0_linear_153_133)"/>
<path fill-rule="evenodd" clip-rule="evenodd" d="M59.7939 60.1693L77.7568 42.2603C80.3439 39.6811 81.6375 38.3915 82.3186 36.7516C83 35.1118 83 33.288 83 29.6406V27.8981C83 22.2892 83 19.4849 81.2521 17.7424C79.5046 16 76.6918 16 71.0661 16H69.3182C65.6596 16 63.8304 16 62.1857 16.6793C60.5407 17.3585 59.2475 18.6481 56.6604 21.2273L38.6972 39.1363C35.6744 42.1501 33.8 44.0188 33.0742 45.8236C32.8449 46.3939 32.7302 46.9579 32.7302 47.5496C32.7302 50.0136 34.7192 51.9968 38.6972 55.9629L39.2319 56.4957L45.4946 50.1396C46.3879 49.2332 47.8468 49.2221 48.7532 50.1154C49.6596 51.0086 49.6707 52.4675 48.7775 53.3739L42.4954 59.7496L42.9164 60.1693C46.8946 64.1353 48.8836 66.1182 51.355 66.1182C51.9014 66.1182 52.4239 66.0214 52.9493 65.8279C54.8029 65.1454 56.6946 63.2589 59.7939 60.1693ZM68.2329 39.1376C65.9025 41.4609 62.1243 41.4609 59.7943 39.1376C57.4639 36.8144 57.4639 33.0477 59.7943 30.7244C62.1243 28.4012 65.9025 28.4012 68.2329 30.7244C70.5632 33.0477 70.5632 36.8144 68.2329 39.1376Z" fill="url(#paint1_linear_153_133)"/>
<path fill-rule="evenodd" clip-rule="evenodd" d="M14.336 53.4336C15.394 54.4929 15.393 56.2093 14.3337 57.2672L13.7778 57.8225C13.303 58.2968 13.303 59.0643 13.7778 59.5386C14.2545 60.0147 15.0286 60.0147 15.5052 59.5386L21.62 53.4311C22.6793 52.3732 24.3957 52.3743 25.4537 53.4336C26.5117 54.4929 26.5106 56.2093 25.4514 57.2672L19.3366 63.3743C16.7432 65.9647 12.5399 65.9647 9.94643 63.3743C7.35119 60.7825 7.35119 56.5786 9.94643 53.9865L10.5023 53.4311C11.5616 52.3732 13.278 52.3743 14.336 53.4336ZM30.49 68.4857C31.5368 69.5561 31.5177 71.2722 30.4473 72.319L24.2681 78.3622C23.1978 79.409 21.4815 79.3897 20.4347 78.3193C19.3879 77.249 19.407 75.5329 20.4773 74.4861L26.6565 68.4429C27.7269 67.3961 29.4432 67.4154 30.49 68.4857ZM45.4325 73.5643C46.4907 74.6236 46.4896 76.34 45.4304 77.3982L39.3155 83.5054C38.8407 83.9797 38.8407 84.7472 39.3155 85.2215C39.7921 85.6975 40.5664 85.6975 41.0429 85.2215L41.5989 84.6661C42.6582 83.6082 44.3746 83.6093 45.4325 84.6686C46.4907 85.7279 46.4896 87.4443 45.4304 88.5022L44.8743 89.0575C42.2811 91.6475 38.0775 91.6475 35.4841 89.0575C32.8889 86.4654 32.8889 82.2615 35.4841 79.6693L41.5989 73.5622C42.6582 72.504 44.3746 72.505 45.4325 73.5643Z" fill="url(#paint2_linear_153_133)"/>
<g opacity="0.5">
<path d="M43.1648 28.176L35.3515 35.9657C33.9153 37.3975 32.5979 38.7109 31.5575 39.8982C30.8894 40.6606 30.2217 41.4952 29.6562 42.4172L29.5801 42.3413C29.4356 42.1973 29.3632 42.1252 29.2906 42.0547C27.9326 40.7371 26.3352 39.6894 24.5838 38.9679C24.4902 38.9293 24.3952 38.8917 24.2053 38.8164L23.042 38.3554C21.466 37.731 21.046 35.7022 22.2452 34.5067C25.6867 31.0756 29.8189 26.956 31.813 26.1286C33.5717 25.3989 35.4716 25.1561 37.3039 25.4269C38.9828 25.675 40.5709 26.5374 43.1648 28.176Z" fill="url(#paint3_linear_153_133)"/>
<path d="M56.5059 69.1907C57.1355 69.8296 57.5534 70.2811 57.9316 70.7632C58.4301 71.3996 58.8762 72.0757 59.2651 72.7843C59.7026 73.5821 60.0423 74.4343 60.7219 76.1389C61.2748 77.5264 63.1126 77.8932 64.1798 76.8293L64.438 76.5718C67.8794 73.1403 72.0116 69.0207 72.8416 67.0325C73.5734 65.2793 73.8169 63.385 73.5451 61.5582C73.2966 59.8846 72.4316 58.3014 70.7884 55.7161L62.9491 63.5318C61.4805 64.9961 60.1337 66.3389 58.9159 67.3907C58.1859 68.0211 57.3873 68.6511 56.5059 69.1907Z" fill="url(#paint4_linear_153_133)"/>
</g>
<g opacity="0.5">
<path d="M31.8793 60.8691C32.9379 59.8105 32.9379 58.0941 31.8793 57.0355C30.8206 55.9769 29.1042 55.9769 28.0455 57.0355L20.3941 64.6869C19.3354 65.7455 19.3354 67.4619 20.3941 68.5205C21.4528 69.5791 23.1692 69.5791 24.2278 68.5205L31.8793 60.8691Z" fill="url(#paint5_linear_153_133)"/>
<path d="M41.912 70.8895C42.9706 69.8309 42.9706 68.1145 41.912 67.056C40.8531 65.9974 39.1369 65.9974 38.0782 67.056L30.4791 74.6549C29.4204 75.7138 29.4204 77.4299 30.4791 78.4888C31.5377 79.5474 33.2541 79.5474 34.3128 78.4888L41.912 70.8895Z" fill="url(#paint6_linear_153_133)"/>
</g>
<defs>
<linearGradient id="paint0_linear_153_133" x1="50" y1="0" x2="50" y2="100" gradientUnits="userSpaceOnUse">
<stop stop-color="#003F88"/>
<stop offset="1" stop-color="#00296B"/>
</linearGradient>
<linearGradient id="paint1_linear_153_133" x1="57.8651" y1="16" x2="57.8651" y2="66.1182" gradientUnits="userSpaceOnUse">
<stop stop-color="#FFD500"/>
<stop offset="1" stop-color="#FDC500"/>
</linearGradient>
<linearGradient id="paint2_linear_153_133" x1="27.1127" y1="52.6384" x2="27.1127" y2="91" gradientUnits="userSpaceOnUse">
<stop stop-color="#FFD500"/>
<stop offset="1" stop-color="#FDC500"/>
</linearGradient>
<linearGradient id="paint3_linear_153_133" x1="32.3591" y1="25.3193" x2="32.3591" y2="42.4172" gradientUnits="userSpaceOnUse">
<stop stop-color="#FFD500"/>
<stop offset="1" stop-color="#FDC500"/>
</linearGradient>
<linearGradient id="paint4_linear_153_133" x1="65.0795" y1="55.7161" x2="65.0795" y2="77.4456" gradientUnits="userSpaceOnUse">
<stop stop-color="#FFD500"/>
<stop offset="1" stop-color="#FDC500"/>
</linearGradient>
<linearGradient id="paint5_linear_153_133" x1="26.1367" y1="56.2416" x2="26.1367" y2="69.3144" gradientUnits="userSpaceOnUse">
<stop stop-color="#FFD500"/>
<stop offset="1" stop-color="#FDC500"/>
</linearGradient>
<linearGradient id="paint6_linear_153_133" x1="36.1955" y1="66.262" x2="36.1955" y2="79.2827" gradientUnits="userSpaceOnUse">
<stop stop-color="#FFD500"/>
<stop offset="1" stop-color="#FDC500"/>
</linearGradient>
</defs>
</svg>
