<svg width="682" height="100" viewBox="0 0 682 100" fill="none" xmlns="http://www.w3.org/2000/svg">
<path d="M472.062 74.9453C470.656 76.3164 468.934 76.9844 466.859 76.9844C464.785 76.9844 463.098 76.3164 461.727 74.9453C460.355 73.5742 459.652 71.8867 459.652 69.8125C459.652 67.8086 460.355 66.0859 461.727 64.7148C463.098 63.3438 464.785 62.6758 466.859 62.6758C468.934 62.6758 470.656 63.3438 472.062 64.7148C473.434 66.0859 474.137 67.8086 474.137 69.8125C474.137 71.8867 473.434 73.5742 472.062 74.9453Z" fill="url(#paint0_linear_159_516)"/>
<path d="M508.449 72.7305C505.109 75.6836 500.926 77.1602 495.934 77.1602C490.941 77.1602 486.758 75.6484 483.418 72.6602C480.043 69.6719 478.355 65.9102 478.355 61.375H489.816C489.816 63.0273 490.414 64.3984 491.645 65.5234C492.84 66.6484 494.316 67.2109 496.074 67.2109C497.762 67.2109 499.168 66.7539 500.293 65.8398C501.418 64.9258 501.98 63.8008 501.98 62.4648C501.98 59.7227 499.062 57.5781 493.191 56.0664C489.078 55.0117 485.703 53.2539 483.066 50.7578C480.43 48.2969 479.094 44.8867 479.094 40.4922C479.094 36.2734 480.676 32.7578 483.875 29.9453C487.074 27.1328 491.047 25.7266 495.793 25.7266C500.645 25.7266 504.688 27.168 507.887 30.0508C511.086 32.9336 512.703 36.5195 512.703 40.8438H501.277C501.277 39.3672 500.75 38.1367 499.73 37.1523C498.711 36.168 497.375 35.6758 495.793 35.6758C494.316 35.6758 493.086 36.0977 492.066 36.9414C491.047 37.7852 490.555 38.8398 490.555 40.0703C490.555 42.7773 493.262 44.8164 498.676 46.2578C502.895 47.418 505.848 48.6836 508.836 51.0391C511.789 53.3945 513.441 57.0508 513.441 61.7266C513.441 66.1211 511.789 69.8125 508.449 72.7305Z" fill="url(#paint1_linear_159_516)"/>
<path d="M551.762 71.6406C548 75.332 543.289 77.1602 537.629 77.1602C531.969 77.1602 527.223 75.332 523.461 71.6406C519.699 67.9492 517.801 63.3789 517.801 57.8945C517.801 52.4453 519.699 47.875 523.461 44.1836C527.223 40.5273 531.969 38.6992 537.629 38.6992C543.289 38.6992 548 40.5273 551.762 44.1836C555.523 47.875 557.422 52.4453 557.422 57.8945C557.422 63.3789 555.523 67.9492 551.762 71.6406ZM531.195 64.3984C532.883 66.1211 535.027 67 537.629 67C540.195 67 542.34 66.1211 544.062 64.3984C545.785 62.6758 546.629 60.4961 546.629 57.8945C546.629 55.3281 545.785 53.1484 544.062 51.4258C542.34 49.7031 540.195 48.8594 537.629 48.8594C535.027 48.8594 532.883 49.7031 531.195 51.4258C529.473 53.1484 528.629 55.3281 528.629 57.8945C528.629 60.4961 529.473 62.6758 531.195 64.3984Z" fill="url(#paint2_linear_159_516)"/>
<path d="M581.293 77.1602C575.633 77.1602 570.887 75.332 567.125 71.6406C563.363 67.9492 561.465 63.3789 561.465 57.8945C561.465 52.4453 563.363 47.875 567.125 44.1836C570.887 40.5273 575.633 38.6992 581.293 38.6992C586.461 38.6992 590.891 40.2461 594.547 43.375C598.168 46.5039 600.277 50.4766 600.875 55.3281H589.906C588.816 51.4961 585.512 48.8594 581.293 48.8594C578.691 48.8594 576.547 49.7031 574.859 51.4258C573.137 53.1484 572.293 55.3281 572.293 57.8945C572.293 60.4961 573.137 62.6758 574.859 64.3984C576.547 66.1211 578.691 67 581.293 67C583.402 67 585.23 66.4023 586.812 65.1719C588.359 63.9766 589.379 62.4297 589.906 60.4961H600.875C600.277 65.3477 598.168 69.3203 594.547 72.4492C590.891 75.5781 586.461 77.1602 581.293 77.1602Z" fill="url(#paint3_linear_159_516)"/>
<path d="M611.984 34.8672C610.156 34.8672 608.609 34.2695 607.379 33.0391C606.148 31.8086 605.516 30.2617 605.516 28.3984C605.516 26.5703 606.148 25.0586 607.379 23.8281C608.609 22.5977 610.156 22 611.984 22C613.848 22 615.43 22.5977 616.695 23.8281C617.926 25.0586 618.559 26.5703 618.559 28.3984C618.559 30.2617 617.926 31.8086 616.695 33.0391C615.43 34.2695 613.848 34.8672 611.984 34.8672ZM617.258 76.2812H606.746V39.5781H617.258V76.2812Z" fill="url(#paint4_linear_159_516)"/>
<path d="M652.379 43.5859V39.5781H662.891V76.2812H652.379V72.2383C649.391 75.5078 645.699 77.125 641.27 77.1602C636.242 77.1602 632.023 75.332 628.648 71.6406C625.238 67.9492 623.551 63.3789 623.551 57.8945C623.551 52.4453 625.238 47.875 628.648 44.1836C632.023 40.5273 636.242 38.6992 641.27 38.6992C645.664 38.6992 649.391 40.3164 652.379 43.5859ZM643.379 67C645.98 67 648.125 66.1211 649.848 64.3984C651.535 62.6758 652.379 60.4961 652.379 57.8945C652.379 55.3281 651.535 53.1484 649.812 51.4258C648.09 49.7031 645.945 48.8594 643.379 48.8594C640.812 48.8594 638.703 49.7031 637.016 51.4258C635.293 53.1484 634.449 55.3281 634.449 57.8945C634.449 60.4961 635.293 62.6758 637.016 64.3984C638.703 66.1211 640.812 67 643.379 67Z" fill="url(#paint5_linear_159_516)"/>
<path d="M681.734 76.2812H671.223V24.4258H681.734V76.2812Z" fill="url(#paint6_linear_159_516)"/>
<path d="M170.555 76.2812H158.32L155.227 67.5625H135.047L131.953 76.2812H120L138.668 26.6055H151.852L170.555 76.2812ZM145.137 38.9102L138.668 57.2617H151.605L145.137 38.9102Z" fill="url(#paint7_linear_159_516)"/>
<path d="M211.23 62.6758L218.016 39.5781H229.758L216.645 76.2812H205.852L198.645 52.3047L191.367 76.2812H180.574L167.461 39.5781H179.414L186.199 62.8164L193.406 39.5781H204.129L211.23 62.6758Z" fill="url(#paint8_linear_159_516)"/>
<path d="M269.625 58.0703C269.625 59.4414 269.52 60.5312 269.344 61.3047H241.254C242.414 65.418 245.719 67.9844 250.043 67.9844C253.523 67.9844 256.477 66.4375 257.742 64.3281H268.887C267.551 68.1602 265.16 71.2539 261.75 73.6094C258.305 75.9648 254.332 77.1602 249.832 77.1602C244.172 77.1602 239.426 75.332 235.664 71.6406C231.902 67.9492 230.004 63.3789 230.004 57.8945C230.004 52.4453 231.902 47.875 235.664 44.1836C239.426 40.5273 244.172 38.6992 249.832 38.6992C255.457 38.6992 260.168 40.5273 263.965 44.1836C267.727 47.875 269.625 52.4805 269.625 58.0703ZM249.832 47.7695C245.719 47.7695 242.59 50.2656 241.324 54.3086H258.305C257.215 50.2656 253.875 47.7695 249.832 47.7695Z" fill="url(#paint9_linear_159_516)"/>
<path d="M287.73 77.1602C283.652 77.1602 280.242 76 277.5 73.6445C274.758 71.3242 273.387 68.4766 273.387 65.1367H283.898C283.898 67.1406 285.691 68.793 287.801 68.793C289.805 68.793 291.387 67.5273 291.387 65.9805C291.387 64.1523 289.418 62.8164 285.48 61.9375C277.746 60.1094 273.879 56.2422 273.914 50.3008C273.914 46.6797 275.25 43.8672 277.887 41.793C280.523 39.7188 283.758 38.6992 287.59 38.6992C291.527 38.6992 294.832 39.8242 297.469 42.0391C300.105 44.2539 301.406 46.9961 301.406 50.2305H290.895C290.895 48.5078 289.453 47.0664 287.52 47.0664C285.797 47.0664 284.426 48.2617 284.426 49.5625C284.426 51.3555 286.465 52.7266 290.543 53.6758C293.742 54.4141 295.922 55.3281 298.277 57.0508C300.633 58.7734 301.898 61.5156 301.898 65.0664C301.898 68.8281 300.562 71.7812 297.855 73.9258C295.148 76.0703 291.773 77.1602 287.73 77.1602Z" fill="url(#paint10_linear_159_516)"/>
<path d="M339.902 71.6406C336.141 75.332 331.43 77.1602 325.77 77.1602C320.109 77.1602 315.363 75.332 311.602 71.6406C307.84 67.9492 305.941 63.3789 305.941 57.8945C305.941 52.4453 307.84 47.875 311.602 44.1836C315.363 40.5273 320.109 38.6992 325.77 38.6992C331.43 38.6992 336.141 40.5273 339.902 44.1836C343.664 47.875 345.562 52.4453 345.562 57.8945C345.562 63.3789 343.664 67.9492 339.902 71.6406ZM319.336 64.3984C321.023 66.1211 323.168 67 325.77 67C328.336 67 330.48 66.1211 332.203 64.3984C333.926 62.6758 334.77 60.4961 334.77 57.8945C334.77 55.3281 333.926 53.1484 332.203 51.4258C330.48 49.7031 328.336 48.8594 325.77 48.8594C323.168 48.8594 321.023 49.7031 319.336 51.4258C317.613 53.1484 316.77 55.3281 316.77 57.8945C316.77 60.4961 317.613 62.6758 319.336 64.3984Z" fill="url(#paint11_linear_159_516)"/>
<path d="M396.504 38.6992C400.477 38.6992 403.711 39.9297 406.137 42.4258C408.562 44.9219 409.793 48.2266 409.793 52.3047V76.2812H399.281V55.4688C399.281 51.5312 396.785 48.8594 392.953 48.8594C390.879 48.8594 389.227 49.4922 387.961 50.7227C386.695 51.9531 386.062 53.6055 386.062 55.6094V76.2812H375.551V55.4688C375.551 51.5312 373.02 48.8594 369.188 48.8594C367.113 48.8594 365.461 49.4922 364.195 50.7227C362.93 51.9531 362.297 53.6055 362.297 55.6094V76.2812H351.785V39.5781H362.297V43.4453C365.039 40.2812 368.52 38.6992 372.738 38.6992C378.047 38.6992 381.914 40.8086 384.305 45.0273C387.152 40.8086 391.23 38.6992 396.504 38.6992Z" fill="url(#paint12_linear_159_516)"/>
<path d="M454.969 58.0703C454.969 59.4414 454.863 60.5312 454.688 61.3047H426.598C427.758 65.418 431.062 67.9844 435.387 67.9844C438.867 67.9844 441.82 66.4375 443.086 64.3281H454.23C452.895 68.1602 450.504 71.2539 447.094 73.6094C443.648 75.9648 439.676 77.1602 435.176 77.1602C429.516 77.1602 424.77 75.332 421.008 71.6406C417.246 67.9492 415.348 63.3789 415.348 57.8945C415.348 52.4453 417.246 47.875 421.008 44.1836C424.77 40.5273 429.516 38.6992 435.176 38.6992C440.801 38.6992 445.512 40.5273 449.309 44.1836C453.07 47.875 454.969 52.4805 454.969 58.0703ZM435.176 47.7695C431.062 47.7695 427.934 50.2656 426.668 54.3086H443.648C442.559 50.2656 439.219 47.7695 435.176 47.7695Z" fill="url(#paint13_linear_159_516)"/>
<rect width="100" height="100" rx="20" fill="url(#paint14_linear_159_516)"/>
<path fill-rule="evenodd" clip-rule="evenodd" d="M59.7939 60.1693L77.7568 42.2603C80.3439 39.6811 81.6375 38.3915 82.3186 36.7516C83 35.1118 83 33.288 83 29.6406V27.8981C83 22.2892 83 19.4849 81.2521 17.7424C79.5046 16 76.6918 16 71.0661 16H69.3182C65.6596 16 63.8304 16 62.1857 16.6793C60.5407 17.3585 59.2475 18.6481 56.6604 21.2273L38.6972 39.1363C35.6744 42.1501 33.8 44.0188 33.0742 45.8236C32.8449 46.3939 32.7302 46.9579 32.7302 47.5496C32.7302 50.0136 34.7192 51.9968 38.6972 55.9629L39.2319 56.4957L45.4946 50.1396C46.3879 49.2332 47.8468 49.2221 48.7532 50.1154C49.6596 51.0086 49.6707 52.4675 48.7775 53.3739L42.4954 59.7496L42.9164 60.1693C46.8946 64.1354 48.8836 66.1182 51.355 66.1182C51.9014 66.1182 52.4239 66.0214 52.9493 65.8279C54.8029 65.1454 56.6946 63.2589 59.7939 60.1693ZM68.2329 39.1376C65.9025 41.4609 62.1243 41.4609 59.7943 39.1376C57.4639 36.8144 57.4639 33.0477 59.7943 30.7244C62.1243 28.4012 65.9025 28.4012 68.2329 30.7244C70.5632 33.0477 70.5632 36.8144 68.2329 39.1376Z" fill="url(#paint15_linear_159_516)"/>
<path fill-rule="evenodd" clip-rule="evenodd" d="M14.336 53.4336C15.394 54.4929 15.393 56.2093 14.3337 57.2672L13.7778 57.8225C13.303 58.2968 13.303 59.0643 13.7778 59.5386C14.2545 60.0147 15.0286 60.0147 15.5052 59.5386L21.62 53.4311C22.6793 52.3732 24.3957 52.3743 25.4537 53.4336C26.5117 54.4929 26.5106 56.2093 25.4514 57.2672L19.3366 63.3743C16.7432 65.9647 12.5399 65.9647 9.94643 63.3743C7.35119 60.7825 7.35119 56.5786 9.94643 53.9865L10.5023 53.4311C11.5616 52.3732 13.278 52.3743 14.336 53.4336ZM30.49 68.4857C31.5368 69.5561 31.5177 71.2722 30.4473 72.319L24.2681 78.3622C23.1978 79.409 21.4815 79.3897 20.4347 78.3193C19.3879 77.249 19.407 75.5329 20.4773 74.4861L26.6565 68.4429C27.7269 67.3961 29.4432 67.4154 30.49 68.4857ZM45.4325 73.5643C46.4907 74.6236 46.4896 76.34 45.4304 77.3982L39.3155 83.5054C38.8407 83.9797 38.8407 84.7472 39.3155 85.2215C39.7921 85.6975 40.5664 85.6975 41.0428 85.2215L41.5989 84.6661C42.6582 83.6082 44.3746 83.6093 45.4325 84.6686C46.4907 85.7279 46.4896 87.4443 45.4304 88.5022L44.8743 89.0575C42.2811 91.6475 38.0775 91.6475 35.4841 89.0575C32.8889 86.4654 32.8889 82.2615 35.4841 79.6693L41.5989 73.5622C42.6582 72.504 44.3746 72.505 45.4325 73.5643Z" fill="url(#paint16_linear_159_516)"/>
<g opacity="0.5">
<path d="M43.1648 28.176L35.3515 35.9657C33.9153 37.3975 32.5979 38.7109 31.5575 39.8982C30.8894 40.6606 30.2217 41.4952 29.6562 42.4172L29.5801 42.3413C29.4356 42.1973 29.3632 42.1252 29.2906 42.0547C27.9326 40.7371 26.3352 39.6894 24.5838 38.9679C24.4902 38.9293 24.3952 38.8917 24.2053 38.8164L23.042 38.3554C21.466 37.731 21.046 35.7022 22.2452 34.5067C25.6867 31.0756 29.8189 26.956 31.813 26.1286C33.5717 25.3989 35.4716 25.1561 37.3039 25.4269C38.9828 25.675 40.5709 26.5374 43.1648 28.176Z" fill="url(#paint17_linear_159_516)"/>
<path d="M56.5059 69.1907C57.1355 69.8296 57.5534 70.2811 57.9316 70.7632C58.4301 71.3996 58.8762 72.0757 59.2651 72.7843C59.7026 73.5821 60.0423 74.4343 60.7219 76.1389C61.2748 77.5264 63.1126 77.8932 64.1798 76.8293L64.438 76.5718C67.8794 73.1403 72.0116 69.0207 72.8416 67.0325C73.5734 65.2793 73.8169 63.385 73.5451 61.5582C73.2966 59.8846 72.4316 58.3014 70.7884 55.7161L62.9491 63.5318C61.4805 64.9961 60.1337 66.3389 58.9159 67.3907C58.1859 68.0211 57.3873 68.6511 56.5059 69.1907Z" fill="url(#paint18_linear_159_516)"/>
</g>
<g opacity="0.5">
<path d="M31.8793 60.8691C32.9379 59.8105 32.9379 58.0941 31.8793 57.0355C30.8206 55.9769 29.1042 55.9769 28.0455 57.0355L20.3941 64.6869C19.3354 65.7455 19.3354 67.4619 20.3941 68.5205C21.4528 69.5791 23.1692 69.5791 24.2278 68.5205L31.8793 60.8691Z" fill="url(#paint19_linear_159_516)"/>
<path d="M41.912 70.8895C42.9706 69.8309 42.9706 68.1145 41.912 67.056C40.8531 65.9974 39.1369 65.9974 38.0782 67.056L30.4791 74.6549C29.4204 75.7138 29.4204 77.4299 30.4791 78.4888C31.5377 79.5474 33.2541 79.5474 34.3128 78.4888L41.912 70.8895Z" fill="url(#paint20_linear_159_516)"/>
</g>
<defs>
<linearGradient id="paint0_linear_159_516" x1="570.693" y1="22" x2="570.693" y2="77.1602" gradientUnits="userSpaceOnUse">
<stop stop-color="#003F88"/>
<stop offset="1" stop-color="#00296B"/>
</linearGradient>
<linearGradient id="paint1_linear_159_516" x1="570.693" y1="22" x2="570.693" y2="77.1602" gradientUnits="userSpaceOnUse">
<stop stop-color="#003F88"/>
<stop offset="1" stop-color="#00296B"/>
</linearGradient>
<linearGradient id="paint2_linear_159_516" x1="570.693" y1="22" x2="570.693" y2="77.1602" gradientUnits="userSpaceOnUse">
<stop stop-color="#003F88"/>
<stop offset="1" stop-color="#00296B"/>
</linearGradient>
<linearGradient id="paint3_linear_159_516" x1="570.693" y1="22" x2="570.693" y2="77.1602" gradientUnits="userSpaceOnUse">
<stop stop-color="#003F88"/>
<stop offset="1" stop-color="#00296B"/>
</linearGradient>
<linearGradient id="paint4_linear_159_516" x1="570.693" y1="22" x2="570.693" y2="77.1602" gradientUnits="userSpaceOnUse">
<stop stop-color="#003F88"/>
<stop offset="1" stop-color="#00296B"/>
</linearGradient>
<linearGradient id="paint5_linear_159_516" x1="570.693" y1="22" x2="570.693" y2="77.1602" gradientUnits="userSpaceOnUse">
<stop stop-color="#003F88"/>
<stop offset="1" stop-color="#00296B"/>
</linearGradient>
<linearGradient id="paint6_linear_159_516" x1="570.693" y1="22" x2="570.693" y2="77.1602" gradientUnits="userSpaceOnUse">
<stop stop-color="#003F88"/>
<stop offset="1" stop-color="#00296B"/>
</linearGradient>
<linearGradient id="paint7_linear_159_516" x1="287.484" y1="26.6055" x2="287.484" y2="77.1602" gradientUnits="userSpaceOnUse">
<stop stop-color="#FFD500"/>
<stop offset="1" stop-color="#FDC500"/>
</linearGradient>
<linearGradient id="paint8_linear_159_516" x1="287.484" y1="26.6055" x2="287.484" y2="77.1602" gradientUnits="userSpaceOnUse">
<stop stop-color="#FFD500"/>
<stop offset="1" stop-color="#FDC500"/>
</linearGradient>
<linearGradient id="paint9_linear_159_516" x1="287.484" y1="26.6055" x2="287.484" y2="77.1602" gradientUnits="userSpaceOnUse">
<stop stop-color="#FFD500"/>
<stop offset="1" stop-color="#FDC500"/>
</linearGradient>
<linearGradient id="paint10_linear_159_516" x1="287.484" y1="26.6055" x2="287.484" y2="77.1602" gradientUnits="userSpaceOnUse">
<stop stop-color="#FFD500"/>
<stop offset="1" stop-color="#FDC500"/>
</linearGradient>
<linearGradient id="paint11_linear_159_516" x1="287.484" y1="26.6055" x2="287.484" y2="77.1602" gradientUnits="userSpaceOnUse">
<stop stop-color="#FFD500"/>
<stop offset="1" stop-color="#FDC500"/>
</linearGradient>
<linearGradient id="paint12_linear_159_516" x1="287.484" y1="26.6055" x2="287.484" y2="77.1602" gradientUnits="userSpaceOnUse">
<stop stop-color="#FFD500"/>
<stop offset="1" stop-color="#FDC500"/>
</linearGradient>
<linearGradient id="paint13_linear_159_516" x1="287.484" y1="26.6055" x2="287.484" y2="77.1602" gradientUnits="userSpaceOnUse">
<stop stop-color="#FFD500"/>
<stop offset="1" stop-color="#FDC500"/>
</linearGradient>
<linearGradient id="paint14_linear_159_516" x1="50" y1="0" x2="50" y2="100" gradientUnits="userSpaceOnUse">
<stop stop-color="#003F88"/>
<stop offset="1" stop-color="#00296B"/>
</linearGradient>
<linearGradient id="paint15_linear_159_516" x1="57.8651" y1="16" x2="57.8651" y2="66.1182" gradientUnits="userSpaceOnUse">
<stop stop-color="#FFD500"/>
<stop offset="1" stop-color="#FDC500"/>
</linearGradient>
<linearGradient id="paint16_linear_159_516" x1="27.1127" y1="52.6384" x2="27.1127" y2="91" gradientUnits="userSpaceOnUse">
<stop stop-color="#FFD500"/>
<stop offset="1" stop-color="#FDC500"/>
</linearGradient>
<linearGradient id="paint17_linear_159_516" x1="32.3591" y1="25.3193" x2="32.3591" y2="42.4172" gradientUnits="userSpaceOnUse">
<stop stop-color="#FFD500"/>
<stop offset="1" stop-color="#FDC500"/>
</linearGradient>
<linearGradient id="paint18_linear_159_516" x1="65.0795" y1="55.7161" x2="65.0795" y2="77.4456" gradientUnits="userSpaceOnUse">
<stop stop-color="#FFD500"/>
<stop offset="1" stop-color="#FDC500"/>
</linearGradient>
<linearGradient id="paint19_linear_159_516" x1="26.1367" y1="56.2416" x2="26.1367" y2="69.3144" gradientUnits="userSpaceOnUse">
<stop stop-color="#FFD500"/>
<stop offset="1" stop-color="#FDC500"/>
</linearGradient>
<linearGradient id="paint20_linear_159_516" x1="36.1955" y1="66.262" x2="36.1955" y2="79.2827" gradientUnits="userSpaceOnUse">
<stop stop-color="#FFD500"/>
<stop offset="1" stop-color="#FDC500"/>
</linearGradient>
</defs>
</svg>
