<svg xmlns="http://www.w3.org/2000/svg" height="24" viewBox="0 -960 960 960" width="24"><path d="M840-176.923v-578.462q0-10.769-6.923-17.692T815.385-780h-670.77q-10.769 0-17.692 6.923T120-755.385V-460H80v-295.385q0-26.654 18.98-45.634Q117.962-820 144.616-820h670.77q26.654 0 45.634 18.981Q880-782.039 880-755.385v523.847q0 19.154-11.192 34.192-11.193 15.039-28.808 20.423ZM360-424.615q-49.5 0-84.75-35.25T240-544.615q0-49.501 35.25-84.751 35.25-35.25 84.75-35.25t84.75 35.25Q480-594.116 480-544.615q0 49.5-35.25 84.75T360-424.615Zm0-40q33 0 56.5-23.5t23.5-56.5q0-33-23.5-56.5t-56.5-23.5q-33 0-56.5 23.5t-23.5 56.5q0 33 23.5 56.5t56.5 23.5ZM80-135.384v-65.847Q80-226 94.423-247.577q14.423-21.577 38.808-33.5 56.615-27.154 113.307-40.731Q303.231-335.385 360-335.385q56.769 0 113.462 13.577 56.692 13.577 113.307 40.731 24.385 11.923 38.808 33.5Q640-226 640-201.231v65.847H80Zm40-40.001h480v-25.846q0-13.307-8.577-25-8.577-11.692-23.731-19.769-49.384-23.923-101.836-36.654Q413.405-295.385 360-295.385q-53.405 0-105.856 12.731Q201.692-269.923 152.308-246q-15.154 8.077-23.731 19.769-8.577 11.693-8.577 25v25.846Zm240-369.23Zm0 369.23Z"/></svg>